<?xml version="1.0" encoding="UTF-8"?>
<svg id="Ebene_1" data-name="Ebene 1" xmlns="http://www.w3.org/2000/svg" viewBox="0 0 400 208.53">
  <defs>
    <style>
      .cls-1 {
        fill: #fff;
      }
    </style>
  </defs>
  <g>
    <polygon points="202.14 153.22 262.11 153.22 253.81 193.65 212.31 193.65 202.14 153.22"/>
    <rect x="197.81" y="144.92" width="69.88" height="8.3"/>
    <polygon points="202.05 194.57 263.45 194.57 259.49 199.45 206.46 199.45 202.05 194.57"/>
    <path d="M215.88,56.37c-.11-3.23-3.64-14.78-12.97-20.56-9.33-5.77-.09-3.92-9.56-12.01-9.47-8.09-12.24-4.85-13.4-7.17-1.15-2.31-7.63-12.01-19.63-13.16-5.19-.5-7.02-1.26-8.57-1.81-2.05-.72-3.62-1.09-11.76-.04-13.65,1.76-8.84.17-12.95,2.81-.43.27-.95.34-1.43.19-1.02-.32-2.79-.88-3.35-1.04-.81-.23-24.2,7.51-28.41,10.11-2.76,1.7-3.66,1.05-3.96.4-.08-.19-.34-.21-.44-.03-.28.52-.72,1.14-1.22,1.14-.05,0-.1,0-.15-.02-.92-.23-3.35-.92-7.16,2.37-2.37,2.04-3.64.97-4.27-.13-.51-.89-1.41-1.48-2.43-1.57-3.5-.31-11.04-.71-15.54,1.07-5.74,2.26-24.78-.38-26.25-4.25.39,1.49,2.47,5.74,13.55,8.7,13.63,3.64,15.99,1.74,19.98,3.69,3.98,1.97,6.18,3.64,7.56,3.64s5.02.41,5.66,1.1c.64.69.29,3.81,6.59,5.43,5.35,1.37,9.71.66,12.99,2.24.57.27,1.11.61,1.62,1.05,3.41,2.94,2.6,4.39,7.68,5.83,5.08,1.44,9.13,1.62,11.03,2.26,1.91.64,11.15,6.47,15.66,7.74,4.5,1.27,10.45,4.15,13.16,3.4s2.89-.86,3.93-.46c1.04.4,1.96,3.69,5.14,4.22,3.17.52,2.48-.52,3.35-.24.86.29.11,1.56,4.15,1.33,4.04-.23,14.26-2.6,18.31-3.47.08-.02.16-.03.24-.04,3.25-.62,6.4.39,7.43.78.21.08.38.24.45.44.41,1.12,2.28,4.8,8.51,2.52,7.28-2.65,4.56-3.12,6.12-3.12s1.39,1.21,2.6,1.44c1.21.23,3.58-1.62,3.58-1.62,0,0,2.94,1.97,3.29,3.47.35,1.5,0,113.6,0,113.6l.87,1.04,2.77-113.66s-2.66-4.39-2.77-7.63ZM203.9,53.24c.11.5-.35.94-.86.85-.88-.15-2-.58-1.49-1.76.67-1.55,1.99-.6,2.35.9ZM179.49,42.74c.58,0,4.02,4.41,2.77,4.27,0,0-3.35-.01-3.58-1.85-.23-1.84.24-2.42.81-2.42ZM177.18,46.7c.02.3-.22.52-.5.52-.08,0-.15-.02-.23-.06-.67-.33-1.42-.97-.55-2,.99-1.15,1.22.49,1.27,1.53ZM73.94,26.53c-.41-.27-.67-.74-.64-1.23.03-.52.2-1,.85-.52,1.16.86,4.95,2.59,5.25,2.59s-2.07,1.34-5.46-.85ZM81.04,25.67c-2.02-.81-5.75-2.54-4.12-3.83,1.72-1.35,4.28.89,5.09,2.82.27.62-.34,1.26-.97,1.01ZM83.68,20.28c-.34-.71.1-1.53.88-1.63,1.21-.15,2.9-.36,4.2-.55.18-.03.36-.06.53-.08,2.19-.34,4.62,1.16,4.97,1.74.34.58,1.62,1.27,5.31,3.12,3.69,1.85,3.58,6.12,1.5,7.85-.24.2-.59.29-1.02.27-3.21-.08-10.92-5.59-12.96-6.51-1.46-.66-2.7-2.77-3.4-4.21ZM101.76,37.78c-.87.04-1.85-.24-2.83-.65-1.75-.72-3.48-1.83-4.56-2.12-4.74-1.32-5.15-2.17-5.15-2.17-1.96-2.51,3.65-2.79,8.89-.48.78.34,1.37.59,1.81.74,2.52.92.52-.62,4.84,1.45,5.08,2.42-.57,3.12-3,3.23ZM107.06,22.36c-.69-1.35-1.86-2.37-3.3-2.81-1.91-.59-3.88-1.92-2.23-4.99,2.58-4.82,2.86-1.23,5.89-2.11.59-.17,1.21-.21,1.82-.15,1.45.16,4.2.12,6.38-1.9,3.12-2.89,9.01,1.27,9.87,3.58.87,2.31,2.49,5.29,4.68,7.44,2.19,2.14,3.93,15.77,0,15.66-3.52-.1-19.59-7.79-23.11-14.72ZM122.09,44.38c-10.17-4.3-11.56-7.42-5.38-7.3,6.19.11,20.62,4.51,20.62,4.51,0,0-5.08,7.08-15.24,2.79ZM133.75,32c-.4-1.55.21-3.28.79-4.47.26-.53,1.01-.57,1.31-.07,1.13,1.9,3.83,2.75,6.21,3.55,2.89.97,1.84,8.04,1.5,8.85-.35.81-2.42-1.04-4.16-2.77-1.73-1.73-4.97-2.42-5.66-5.08ZM155.47,52.86c-2.66,1.34-.58-.88-6.01-.53-5.42.34-2.77.92-7.05,0-4.27-.93.93-7.45.93-7.45,1.26-1.84,3.23.86,5.2,0s8.43.06,8.16.88c-.28.83,2,3.33,2.93,4.6.92,1.27-1.51,1.16-4.16,2.49ZM164.23,51.51c-.46.1-.93.06-1.37-.11-4.01-1.51-3.71-3.85-3.31-4.93.12-.33.5-.49.83-.37,2.32.85,7.38,2.18,7.92,3.35.45.98-2.64,1.76-4.06,2.06ZM162.97,43.09c-1.39-.12-6-3.81-7.28-6.01-1.27-2.19-4.62-3.23-4.85-4.62s-2.89-8.2-5.89-12.01c-3-3.82-2.09-7.61-3.58-9.35,0,0-3.12-2.89-1.74-4.04s6.47.46,8.09,0c1.62-.46-.69-1.97,2.19-1.85.36.01.84.04,1.41.1,3.99.43,12.57,2.39,18.23,11.68,6.47,10.63,3.12,8.89,3.12,12.36s3.35,12.48-.23,14.32c-3.58,1.85-8.09-.46-9.48-.57ZM182.82,57.96c-.13.02-.22.03-.29.03-4.25.13-5.6-1.49-8.06-2.23-1.22-.36-2.14-1.43-2.19-2.7-.05-1.17.55-2.42,3.16-2.7.4-.04.83-.06,1.3-.07,5.56-.03,15.16,2.82,15.7,3.88.54,1.09-7.71,3.47-9.61,3.78ZM197.51,51.64c-2.19,0-4.04-3.01-6.24-3.7-2.19-.69-6.35-4.85-9.82-10.28-2.59-4.07-.91-10.61.1-13.63.31-.94,1.41-1.37,2.28-.88,1.23.69,2.69,1.86,2.82,3.66.23,3.12,4.73,5.77,6.93,9.13,2.19,3.35,3.82.23,7.28,6.47,3.46,6.23-1.16,9.24-3.35,9.24ZM203.79,57.71l-2.11.25c-.17.02-.33-.03-.45-.15l-1.43-1.35c-.18-.17-.01-.47.23-.41l3.81,1.06c.33.09.29.57-.04.6ZM205.25,43.21s-2.31-3.89-.69-3.15c1.62.72,5.2,7.54,5.2,9.04s-2.08,3.47-4.5-5.89Z"/>
    <path d="M388.8,79.63c-2.08.17-12.31-2.08-18.19-2.25-5.89-.18-8.32-2.08-11.61-3.29-3.15-1.16-3.61.85-5.62.27-.09-.03-.18-.06-.27-.1-2.25-.86-.34-1.9-5.2-4.33-4.7-2.35-4.52.5-11.44-4.04-.22-.15-.45-.3-.69-.46-7.63-5.2-12.65-5.83-12.65-5.83-3.8-3.15-7.08-3.75-8.67-3.83-.58-.03-1.09-.34-1.46-.79-.65-.79-2.21-1.71-5.81-.5-3.88,1.3-6.23.78-7.29.35-.46-.18-.97-.21-1.43-.03-1.68.67-3.18.9-4.51.9-3,0-5.14-1.19-6.52-1.22-2.08-.05-1.39.57-3.81,1.28-2.43.72-3.64-1.24-7.63-1.28-3.99-.04-7.28,2.3-7.97,4.03-.69,1.74-1.04,1.04-3.64,1.1-2.6.06-2.08,1.15-4.68,3.06-2.6,1.91-7.28,4.16-9.53,4.85-2.26.69-3.12,1.56-5.72,2.42-2.6.86-4.68,3.64-8.67,5.55-2.73,1.31-6.13,6.14-8.15,9.49-.92,1.51-1.56,2.73-1.72,3.16-.52,1.39-1.56,2.79-1.56,2.79,0,0-2.42,5.7-2.59,6.73-.18,1.04-4.85,79.53-4.85,79.53h3.12s4.16-77.27,5.2-80.91c.69-2.41,3.14-3.15,4.7-3.37.64-.09,1.29.24,1.53.85,1.01,2.49,6.35,3.92,8.57,4.41.08.02.17.03.25.03.46,0,.89-.29,1.07-.74.17-.41.61-.67,1.04-.55,3.03.79,6.55-2.79,9.76-1.47.5.2,1,.53,1.49,1.02,3.82,3.82,11.09,2.43,11.09,2.43,9.27,7.02,12.39.38,17.67.38,1.23,0,2.58.36,4.16,1.35,6.24,3.9,10.82,1.76,12.72.44.79-.55,1.71-.92,2.66-1.13,2.94-.66,3.08-.99,6.8-.7,2.86.23,4.88.46,6.63.24.9-.11,1.73-.34,2.56-.75,2.42-1.21,6.24-.35,10.22-.35s3.17-4.39,7.85-4.66c.15,0,.31-.01.47-.01,5.2,0,10.91-1.04,13.17-1.91,2.25-.86,3.64-3.99,7.62-4.33,3.99-.35,10.23-2.77,10.23-2.77,4.33-.17,3.64-1.74,16.98-2.94,12.38-1.13,13.72,4.46,13.84,5.27-.41-5.81-7.45-7.52-9.51-7.35ZM261.8,77.44c4.85-7.68,7.63-11.84,8.66-7.85.15.57.3,1.2.45,1.85.83,3.89,1.34,8.81-.45,10.45-1.9,1.74-5.37,4.5-7.94,5.1-.12.03-.24.04-.36.04-.41,0-.81-.15-1.13-.43-1.14-.97-2.79-3.53.76-9.16ZM230.67,87.09c-.66-.46-.52-1.11,0-1.8.83-1.11,2.66-2.33,3.89-3.08.4-.24.87.18.67.6-.52,1.08-1.31,2.58-2.2,3.54-.76.83-1.59,1.28-2.36.74ZM236.13,88.26c-.45.18-.91-.24-.76-.7.13-.38.31-.78.55-1.09.25-.31.56-.53.95-.53.22,0,.46.07.73.23,1.33.78-.29,1.63-1.47,2.1ZM242.34,87.09c-.29,0-.58-.07-.83-.22-.63-.39-1.9-1.24-2.35-2.14-.29-.56-.25-1.14.46-1.63,2.25-1.56,2.42-6.24,4.16-7.45,1.23-.86,6.12-4.85,9.84-6.8,1.53-.79,2.86-1.25,3.67-1,2.77.86-.87,4.85,0,6.07.86,1.21-1.39,7.97-6.76,10.74-4.19,2.16-7.11,2.43-8.2,2.44ZM269.94,97.48c-1.39-.17-4.15-1.73-8.31-1.04-2.35.39-6.2-.83-9.09-1.95h0c-2.21-.87-3.87-1.69-3.87-1.69,0,0-4.72-2.77,2.21-3.29,4.37-.33,8.12-.93,11.25-.9,1.83.02,3.45.25,4.86.9,3.82,1.73,5.29,3.29,5.34,3.98.04.69-1,4.16-2.39,3.99ZM291.02,98.37c-1.79-.24-5.16-.74-8.1-1.53-2.59-.71-4.84-1.64-5.37-2.82-1.09-2.45-3.03-4.19-.62-4.98.66-.22,1.63-.36,3.05-.43,6.58-.31,10.05-.27,10.39,2.31.24,1.79,1.06,4.74,1.55,6.39.17.58-.31,1.14-.9,1.06ZM291.56,84.72c-.32.21-.66.36-1.04.43-1.42.28-4.85.84-1.23-1.21,4.45-2.52,4.15-1.95,4.22-1.2.04.54-1.23,1.48-1.95,1.97ZM290.55,81.71c-.85,1.13-6.86,2.26-9.06,2.63-.49.09-.95.26-1.39.5-.66.36-1.84.87-3.36.95-.5.02-1.04,0-1.6-.1-3.29-.52-.69-1.9-.69-6.58,0-2.48-1.62-5.39-2.03-7.82-.36-2.15.24-3.92,3.76-4.66,7.5-1.58,8.66-5.2,11.09-7.05,1.56-1.2,3.57-1.01,6.61-.62,1.67.21,3.64.48,6.04.62,6.75.41,0,5.66,0,5.66-.35,4.67-8.32,15.07-9.36,16.46ZM297.23,85.85c-.36,0-.76-.2-.08-1.37,1.04-1.79,2.59-3.02,3.23-2.38.07.08.1.18.07.31-.17.99-2.84,3.38-2.84,3.38,0,0-.18.06-.38.06ZM317.9,96.52c-.62.34-1.5.66-2.76.76-1.27.1-2.9,0-5-.49-7.45-1.73-10.91-1.39-10.91-1.39,0,0-5.72.21-3.82-4.48.69-1.69,1.61-2.54,2.6-2.9,1.76-.64,3.73.24,4.91.59,1.84.55,2.19,2.82,4.71,2.99,2.33.15,6.52-1.32,10.58,2.75.64.65.5,1.73-.3,2.17ZM324.27,91.63c-.31.57-.98.85-1.61.66-.73-.23-1.88-.64-3.51-1.37-3.12-1.41-10.23-1.3-.69-2.31,6.87-.72,6.53,1.65,5.81,3.03ZM323.99,83.79c-6.93,1.39-2.07,3.81-6.93,1.39-4.85-2.43-15.91,5.74-14.15-1.39,0,0,.1-.51.28-1.3.46-2.04,1.39-5.98,2.26-8.23,1.21-3.12,3.99-12.65,10.57-12.3,6.59.34,7.8-1.06,8.66,0,.87,1.04,3.47,2.43,4.34,2.26.55-.11,4.29.7,7.05,2.25,1.56.87,2.8,1.98,3,3.29.52,3.64-2.43,6.1-4.68,7.82-1.27.96-2.21,2.37-4.02,3.67-1.41,1-3.35,1.95-6.38,2.55ZM332.33,86.74c-.11.02-.22.03-.33.04-.86.1-1.46-.84-1-1.58.5-.82,1.27-1.79,2.36-2.46.18-.11.37-.23.54-.34,1.91-1.21,2.95-1.97,3.27-.7.01.05.03.1.03.16.15,1.29-1.35,4.31-4.86,4.87ZM342.54,89.92c-.52.28-3.57,1.82-6.6,1.84h-3.1s-7.45-1.63-1.56-3.15c.51-.13.95-.24,1.35-.31,4.27-.83,3.07,1.07,6.5.31,3.75-.83,3.92,1.04,3.41,1.32ZM351.02,83.95c-3.12,1.93-8.27.71-8.27.71,0,0-2.72-.87-2.88-2.91-.07-.85.29-1.89,1.46-3.15,3.98-4.33,9.7-4.42,9.7-4.42,0,0,1.01.12,2.29.44,1.86.46,4.27,1.32,4.99,2.83,1.21,2.54-4.16,4.59-7.28,6.51Z"/>
    <polygon class="cls-1" points="205.42 156.51 214.65 156.51 219.17 190.78 213.29 190.78 205.42 156.51"/>
  </g>
  <g>
    <path d="M36.7,114.64l-7.96-14.06h-7.08v29.18H6.64V54.87h28.11c5.79,0,10.73,1.02,14.81,3.06,4.08,2.04,7.13,4.79,9.17,8.26,2.04,3.47,3.06,7.35,3.06,11.64,0,4.93-1.43,9.39-4.29,13.36-2.86,3.97-7.12,6.71-12.77,8.21l17.92,30.36h0c-10.74,0-20.65-5.78-25.94-15.12ZM21.66,89.31h12.55c4.08,0,7.12-.98,9.12-2.95,2-1.97,3-4.7,3-8.21s-1-6.1-3-7.99c-2-1.89-5.04-2.84-9.12-2.84h-12.55v21.99Z"/>
    <path d="M84.74,126.92c-4.58-2.54-8.17-6.13-10.78-10.78-2.61-4.65-3.92-10.01-3.92-16.09s1.34-11.44,4.02-16.09c2.68-4.65,6.35-8.24,11-10.78,4.65-2.54,9.83-3.81,15.56-3.81s10.91,1.27,15.56,3.81c4.65,2.54,8.32,6.13,11,10.78,2.68,4.65,4.02,10.02,4.02,16.09s-1.38,11.44-4.13,16.09c-2.75,4.65-6.47,8.24-11.16,10.78-4.69,2.54-9.92,3.81-15.72,3.81s-10.87-1.27-15.45-3.81ZM107.86,115.65c2.4-1.32,4.31-3.31,5.74-5.95,1.43-2.65,2.15-5.86,2.15-9.66,0-5.65-1.49-10-4.45-13.04-2.97-3.04-6.6-4.56-10.89-4.56s-7.89,1.52-10.78,4.56c-2.9,3.04-4.34,7.39-4.34,13.04s1.41,10,4.24,13.04c2.83,3.04,6.38,4.56,10.68,4.56,2.72,0,5.27-.66,7.67-1.98Z"/>
    <path d="M151.58,126.92c-4.58-2.54-8.17-6.13-10.78-10.78-2.61-4.65-3.92-10.01-3.92-16.09s1.34-11.44,4.02-16.09c2.68-4.65,6.35-8.24,11-10.78,4.65-2.54,9.83-3.81,15.56-3.81s10.91,1.27,15.56,3.81c4.65,2.54,8.32,6.13,11,10.78,2.68,4.65,4.02,10.02,4.02,16.09s-1.38,11.44-4.13,16.09c-2.75,4.65-6.47,8.24-11.16,10.78-4.69,2.54-9.92,3.81-15.72,3.81s-10.87-1.27-15.45-3.81ZM174.7,115.65c2.4-1.32,4.31-3.31,5.74-5.95,1.43-2.65,2.15-5.86,2.15-9.66,0-5.65-1.49-10-4.45-13.04-2.97-3.04-6.6-4.56-10.89-4.56s-7.89,1.52-10.78,4.56c-2.9,3.04-4.34,7.39-4.34,13.04s1.41,10,4.24,13.04c2.83,3.04,6.38,4.56,10.68,4.56,2.72,0,5.27-.66,7.67-1.98Z"/>
  </g>
  <g>
    <path d="M21.74,153.35v28.75c0,2,.48,3.45,1.45,4.35.97.89,2.59,1.34,4.88,1.34h57.21s12.8,13.63,12.8,13.63l-72.48-.97c-12.66,0-18.99-6.15-18.99-18.45v-28.65H-.47v-12.23c0-.06.05-.11.11-.11h6.97v-14.7h15.13v14.7h13.3v12.34h-13.3Z"/>
    <path d="M121.56,175.24h-38.07c.36,4.29,1.86,7.65,4.51,10.09,2.65,2.43,5.9,3.65,9.76,3.65,5.58,0,9.55-2.4,11.91-7.19h16.2c-1.72,5.72-5.01,10.43-9.87,14.11-4.87,3.69-10.84,5.53-17.92,5.53-5.72,0-10.85-1.27-15.4-3.81-4.54-2.54-8.08-6.13-10.62-10.78-2.54-4.65-3.81-10.01-3.81-16.09s1.25-11.55,3.76-16.2c2.5-4.65,6.01-8.22,10.51-10.73,4.51-2.5,9.69-3.76,15.56-3.76s10.71,1.22,15.18,3.65c4.47,2.43,7.94,5.88,10.41,10.35,2.47,4.47,3.7,9.6,3.7,15.4,0,.02,0,.04,0,.06,0,3.18-2.63,5.73-5.81,5.73ZM111.81,165.15c-.07-3.86-1.47-6.96-4.19-9.28-2.72-2.32-6.04-3.49-9.98-3.49-3.72,0-6.85,1.13-9.39,3.38-2.54,2.25-4.09,5.38-4.67,9.39h28.22Z"/>
    <path d="M139.42,154.53c2.4-4.65,5.67-8.22,9.82-10.73,4.15-2.5,8.76-3.76,13.84-3.76,3.86,0,7.55.84,11.05,2.52,3.5,1.68,6.29,3.92,8.37,6.7v-22.96h0c8.41,0,15.24,6.82,15.24,15.24v58.9h-15.24v-8.8c-1.86,2.93-4.47,5.29-7.83,7.08-3.36,1.79-7.26,2.68-11.69,2.68-5.01,0-9.59-1.29-13.73-3.86-4.15-2.57-7.42-6.21-9.82-10.89-2.4-4.68-3.59-10.07-3.59-16.15s1.2-11.34,3.59-15.99ZM180.45,161.35c-1.43-2.61-3.36-4.61-5.79-6.01-2.43-1.39-5.04-2.09-7.83-2.09s-5.36.68-7.72,2.04c-2.36,1.36-4.27,3.34-5.74,5.95-1.47,2.61-2.2,5.7-2.2,9.28s.73,6.71,2.2,9.39c1.47,2.68,3.4,4.74,5.79,6.17,2.4,1.43,4.95,2.15,7.67,2.15s5.4-.7,7.83-2.09c2.43-1.39,4.36-3.4,5.79-6.01,1.43-2.61,2.15-5.74,2.15-9.39s-.72-6.78-2.15-9.39Z"/>
  </g>
</svg>