<?xml version="1.0" encoding="UTF-8"?>
<svg id="Ebene_1" data-name="Ebene 1" xmlns="http://www.w3.org/2000/svg" viewBox="0 0 400 230.71">
  <defs>
    <style>
      .cls-1 {
        fill: #f5f0e1;
      }
    </style>
  </defs>
  <g>
    <g>
      <path class="cls-1" d="M37.32,155.73l-10.54-18.62h-6.49v26.75H6.51v-68.65h25.77c5.31,0,9.83.94,13.57,2.8,3.74,1.87,6.54,4.39,8.41,7.57,1.87,3.18,2.8,6.74,2.8,10.67,0,4.52-1.31,8.6-3.93,12.24-2.62,3.64-6.52,6.15-11.7,7.52l16.42,27.83h-6.59c-5.77,0-11.1-3.1-13.94-8.13ZM20.28,126.78h11.51c3.74,0,6.52-.9,8.36-2.7,1.83-1.8,2.75-4.31,2.75-7.52s-.92-5.59-2.75-7.33c-1.84-1.74-4.62-2.61-8.36-2.61h-11.51v20.16Z"/>
      <path class="cls-1" d="M78.11,161.25c-4.2-2.33-7.49-5.62-9.88-9.88-2.39-4.26-3.59-9.18-3.59-14.75s1.23-10.49,3.69-14.75c2.46-4.26,5.82-7.56,10.08-9.88,4.26-2.33,9.01-3.49,14.26-3.49s10,1.16,14.26,3.49c4.26,2.33,7.62,5.62,10.08,9.88,2.46,4.26,3.69,9.18,3.69,14.75s-1.26,10.49-3.79,14.75c-2.52,4.26-5.94,7.56-10.23,9.88-4.29,2.33-9.1,3.49-14.41,3.49s-9.97-1.16-14.16-3.49ZM99.3,150.93c2.2-1.21,3.95-3.03,5.26-5.46,1.31-2.42,1.97-5.38,1.97-8.85,0-5.18-1.36-9.16-4.08-11.95-2.72-2.79-6.05-4.18-9.98-4.18s-7.23,1.39-9.88,4.18c-2.66,2.79-3.98,6.77-3.98,11.95s1.29,9.16,3.88,11.95c2.59,2.79,5.85,4.18,9.79,4.18,2.49,0,4.83-.61,7.03-1.82Z"/>
      <path class="cls-1" d="M139.38,161.25c-4.2-2.33-7.49-5.62-9.88-9.88-2.39-4.26-3.59-9.18-3.59-14.75s1.23-10.49,3.69-14.75c2.46-4.26,5.82-7.56,10.08-9.88,4.26-2.33,9.01-3.49,14.26-3.49s10,1.16,14.26,3.49c4.26,2.33,7.62,5.62,10.08,9.88,2.46,4.26,3.69,9.18,3.69,14.75s-1.26,10.49-3.79,14.75c-2.52,4.26-5.94,7.56-10.23,9.88-4.29,2.33-9.1,3.49-14.41,3.49s-9.97-1.16-14.16-3.49ZM160.57,150.93c2.2-1.21,3.95-3.03,5.26-5.46,1.31-2.42,1.97-5.38,1.97-8.85,0-5.18-1.36-9.16-4.08-11.95-2.72-2.79-6.05-4.18-9.98-4.18s-7.23,1.39-9.88,4.18c-2.66,2.79-3.98,6.77-3.98,11.95s1.29,9.16,3.88,11.95c2.59,2.79,5.85,4.18,9.79,4.18,2.49,0,4.83-.61,7.03-1.82Z"/>
    </g>
    <g>
      <path class="cls-1" d="M20.36,185.49v26.36c0,1.84.44,3.16,1.33,3.98.89.82,2.38,1.23,4.48,1.23h59.17l8.52,11.61H23.9c-11.61,0-17.41-5.64-17.41-16.92v-26.26h0c-3.58,0-6.49-2.91-6.49-6.49v-4.82h6.49v-13.47h13.87v13.47h31.84c3.12,0,5.65,2.53,5.65,5.65h0c0,3.12-2.53,5.65-5.65,5.65h-31.84Z"/>
      <path class="cls-1" d="M120.3,204.66h-39.83c.33,3.93,1.7,7.02,4.13,9.25,2.42,2.23,5.41,3.34,8.95,3.34,5.11,0,8.75-2.2,10.92-6.59h14.85c-1.57,5.25-4.59,9.56-9.05,12.93-4.46,3.38-9.93,5.07-16.42,5.07-5.25,0-9.95-1.16-14.11-3.49-4.16-2.33-7.41-5.62-9.74-9.88-2.33-4.26-3.49-9.18-3.49-14.75s1.15-10.59,3.44-14.85c2.29-4.26,5.51-7.54,9.64-9.83,4.13-2.29,8.88-3.44,14.26-3.44s9.82,1.12,13.92,3.34c4.1,2.23,7.28,5.39,9.54,9.49,2.26,4.1,3.39,8.8,3.39,14.11,0,1.97-.13,3.74-.39,5.31ZM106.43,195.42c-.07-3.54-1.34-6.38-3.84-8.51-2.49-2.13-5.54-3.2-9.15-3.2-3.41,0-6.28,1.03-8.61,3.1-2.33,2.06-3.75,4.93-4.28,8.6h25.87Z"/>
      <path class="cls-1" d="M128.23,186.57c2.2-4.26,5.2-7.54,9-9.83,3.8-2.29,8.03-3.44,12.69-3.44,3.54,0,6.92.77,10.13,2.31,3.21,1.54,5.77,3.59,7.67,6.15v-21.03h11.31c1.47,0,2.66,1.19,2.66,2.66v65.29h-13.97v-8.06c-1.71,2.69-4.1,4.85-7.18,6.49-3.08,1.64-6.66,2.46-10.72,2.46-4.59,0-8.79-1.18-12.59-3.54-3.8-2.36-6.8-5.69-9-9.98-2.2-4.29-3.29-9.23-3.29-14.8s1.1-10.39,3.29-14.65ZM165.84,192.81c-1.31-2.39-3.08-4.23-5.31-5.51-2.23-1.28-4.62-1.92-7.18-1.92s-4.92.62-7.08,1.87c-2.16,1.25-3.92,3.07-5.26,5.46-1.34,2.39-2.02,5.23-2.02,8.51s.67,6.15,2.02,8.61c1.34,2.46,3.11,4.34,5.31,5.65,2.2,1.31,4.54,1.97,7.03,1.97s4.95-.64,7.18-1.92c2.23-1.28,4-3.11,5.31-5.51,1.31-2.39,1.97-5.26,1.97-8.6s-.66-6.21-1.97-8.61Z"/>
    </g>
  </g>
  <path class="cls-1" d="M210.61,126.69c1.49-2.77,4.2-14.2-.8-23.63-5-9.43,1.85-3.34-2.14-14.78-3.98-11.44-7.9-10.08-7.74-12.6.17-2.5-.51-13.83-10.03-20.69-4.11-2.97-5.28-4.5-6.31-5.72-1.36-1.61-2.51-2.7-9.86-5.81-12.33-5.22-7.5-4.2-12.26-3.99-.49.02-.96-.18-1.29-.54-.7-.77-1.92-2.11-2.31-2.52-.57-.59-24.01-5.56-28.83-5.45-3.16.08-3.59-.92-3.52-1.61.02-.2-.19-.34-.36-.23-.49.3-1.17.61-1.59.36-.04-.02-.08-.06-.12-.09-.66-.64-2.36-2.42-7.18-1.52-2.99.55-3.54-.97-3.52-2.21,0-1-.46-1.93-1.27-2.51-2.79-1.98-8.93-6.01-13.58-6.73-5.93-.92-20.63-12.48-19.96-16.45-.41,1.45-.75,6.03,7.11,13.95,9.66,9.74,12.58,9.31,14.97,12.91,2.38,3.6,3.4,6.09,4.57,6.77s4.02,2.81,4.21,3.7c.19.89-1.62,3.34,2.87,7.79,3.82,3.78,7.84,5.32,9.82,8.26.35.51.63,1.06.84,1.67,1.42,4.15.03,4.96,3.59,8.67,3.56,3.71,6.87,5.84,8.16,7.31,1.29,1.47,6.19,10.9,9.35,14.18,3.16,3.27,6.74,8.62,9.39,9.32,2.65.7,2.85.69,3.53,1.54.67.85-.17,4.06,2.25,6.06,2.41,1.99,2.34.78,2.93,1.45.58.67-.67,1.36,2.84,3.15,3.51,1.79,13.26,4.81,17.08,6.07.08.02.15.05.22.08,3.03,1.08,5.19,3.47,5.86,4.3.14.17.2.38.16.59-.2,1.14-.44,5.15,5.91,6.3,7.41,1.34,5.36-.38,6.67.38s.57,1.7,1.48,2.49c.9.79,3.8.4,3.8.4,0,0,1.51,3.1,1.06,4.52-.44,1.43-36.61,63.09-36.61,63.09l.22,1.3,37.38-59.26c.95-1.5,1.54-3.21,1.7-4.98.15-1.66.5-3.81,1.3-5.31ZM202.09,118.18c-.15.47-.76.62-1.14.29-.67-.56-1.4-1.47-.39-2.2,1.32-.97,1.97.47,1.53,1.91ZM186.73,97.39c.49.28,1.21,5.67.23,4.95,0,0-2.8-1.65-2.1-3.31.71-1.66,1.39-1.92,1.87-1.64ZM182.85,99.58c-.13.26-.44.33-.67.19-.06-.04-.12-.09-.16-.16-.4-.61-.72-1.52.52-1.95,1.4-.48.79,1.01.32,1.91ZM106.03,31.98c-.21-.43-.2-.95.06-1.35.27-.42.66-.74.97-.01.55,1.29,2.89,4.61,3.13,4.75s-2.4.11-4.17-3.39ZM112.42,34.74c-1.3-1.67-3.58-4.96-1.58-5.24,2.11-.3,3.16,2.85,2.9,4.87-.08.65-.91.89-1.31.37ZM117.28,31.51c.06-.76.84-1.24,1.54-.94,1.09.47,2.61,1.12,3.79,1.6.17.07.33.13.48.19,2.01.79,3.31,3.24,3.32,3.9,0,.65.73,1.86,2.93,5.22,2.2,3.37,0,6.9-2.59,7.33-.3.05-.64-.05-.99-.27-2.65-1.64-6.43-10.05-7.69-11.83-.91-1.27-.91-3.65-.79-5.21ZM123.87,55.07c-.75-.4-1.44-1.11-2.06-1.93-1.12-1.46-2.03-3.24-2.79-4.02-3.33-3.43-3.26-4.35-3.26-4.35-.42-3.07,4.44-.55,7.7,3.96.49.67.86,1.16,1.16,1.51,1.67,2.01.74-.26,3.35,3.59,3.08,4.53-2.01,2.34-4.11,1.24ZM135.89,44.73c.08-1.47-.4-2.9-1.39-3.98-1.32-1.43-2.32-3.52.57-5.28,4.53-2.78,3,.37,5.98,1.12.58.15,1.12.42,1.6.77,1.14.85,3.47,2.16,6.3,1.54,4.03-.9,6.94,5.48,6.53,7.85-.4,2.37-.51,5.66.28,8.55.79,2.88-4.44,15.18-7.68,13.15-2.9-1.81-12.63-16.16-12.19-23.71ZM137.71,70.6c-6.43-8.6-6.07-11.9-.94-8.77,5.14,3.13,15.11,13.91,15.11,13.91,0,0-7.74,3.46-14.17-5.13ZM153.58,65.92c.42-1.49,1.79-2.65,2.86-3.37.48-.32,1.13.02,1.13.58.02,2.15,1.87,4.19,3.48,6.03,1.95,2.23-2.4,7.66-3.08,8.17-.69.51-1.53-2.06-2.13-4.37-.6-2.3-2.98-4.47-2.26-7.05ZM161.59,94.1c-2.89-.18-.06-1.02-4.79-3.39-4.73-2.37-2.78-.59-5.92-3.46-3.13-2.88,4.44-5.81,4.44-5.81,1.96-.93,2.29,2.31,4.36,2.55s7.06,4.19,6.42,4.75c-.64.56.05,3.78.2,5.31.15,1.52-1.83.23-4.72.05ZM169.62,97.26c-.43-.14-.81-.41-1.1-.76-2.62-3.24-1.23-5.06-.36-5.77.26-.22.66-.17.88.1,1.53,1.85,5.13,5.46,5.01,6.7-.11,1.04-3.08.18-4.42-.26ZM172.69,89.58c-1.11-.78-3.17-6.15-3.16-8.62,0-2.47-2.3-4.98-1.81-6.26s1.6-8.31.95-12.98c-.65-4.68,1.98-7.42,1.58-9.61,0,0-1.21-3.96.53-4.25s5.21,3.57,6.79,3.97c1.58.4.38-1.99,2.75-.48.3.19.68.45,1.14.78,3.14,2.32,9.38,8.17,9.58,18.76.22,12.1-1.74,9-3.45,11.91-1.7,2.91-3.31,12.13-7.22,11.92-3.92-.2-6.57-4.35-7.68-5.13ZM182.06,111.81c-.12-.05-.2-.08-.26-.11-3.64-1.98-3.97-4-5.68-5.83-.85-.9-1.1-2.25-.52-3.34.53-1.01,1.65-1.76,3.98-.72.36.16.73.36,1.12.58,4.69,2.71,11.35,9.81,11.28,10.96-.08,1.18-8.18-.87-9.93-1.54ZM197.51,113.7c-1.84-1.08-1.92-4.51-3.42-6.17-1.51-1.65-2.96-7.19-3.21-13.45-.18-4.69,4.44-9.36,6.77-11.4.72-.64,1.86-.46,2.35.37.69,1.18,1.35,2.89.58,4.46-1.34,2.73,1.14,7.17,1.34,11.06.2,3.89,3.09,2.06,2.94,9.01-.15,6.93-5.51,7.19-7.35,6.12ZM199.8,121.89l-1.9-.83c-.15-.07-.26-.19-.31-.34l-.54-1.84c-.07-.23.22-.4.39-.23l2.68,2.76c.23.24-.03.62-.33.49ZM208.14,110.42s-.04-4.4.97-2.99c1,1.4.66,8.89-.07,10.15s-3.45,1.89-.89-7.16Z"/>
  <path class="cls-1" d="M385.76,154.01c-2.59.36-15.55-1.75-22.94-1.56-7.39.19-10.56-2.03-14.76-3.32-4.03-1.24-4.46,1.32-7.02.72-.11-.03-.23-.06-.35-.1-2.88-.93-.56-2.36-6.81-5.06-6.05-2.61-5.63.94-14.61-4.27-.29-.17-.59-.34-.89-.53-9.91-5.98-16.24-6.43-16.24-6.43-4.98-3.68-9.13-4.2-11.13-4.2-.73,0-1.39-.35-1.88-.89-.87-.94-2.88-1.99-7.31-.23-4.77,1.9-7.75,1.41-9.11.94-.59-.2-1.23-.2-1.79.07-2.06.95-3.92,1.34-5.58,1.44-3.76.21-6.52-1.13-8.25-1.08-2.61.08-1.7.8-4.68,1.87-2.99,1.07-4.64-1.3-9.64-1.08-5,.22-8.95,3.39-9.7,5.6-.75,2.22-1.23,1.38-4.48,1.63-3.25.26-2.52,1.59-5.65,4.16-3.12,2.57-8.82,5.71-11.59,6.74-2.78,1.02-3.8,2.17-6.99,3.43-3.2,1.26-5.61,4.88-10.47,7.55-3.33,1.83-7.25,8.12-9.55,12.45-1.05,1.96-1.76,3.52-1.94,4.08-.55,1.77-1.76,3.6-1.76,3.6,0,0-2.64,7.3-2.78,8.61-.15,1.32-.56,40.33-.56,40.33l3.9-.22s-.15-37.47.9-42.09c.7-3.07,3.71-4.16,5.65-4.55.8-.16,1.63.21,1.98.95,1.44,3.04,8.23,4.47,11.04,4.92.1.02.22.03.32.02.58-.03,1.09-.43,1.29-1,.18-.53.72-.88,1.27-.77,3.85.78,8.01-3.94,12.11-2.52.64.22,1.29.59,1.93,1.17,5.04,4.51,14.06,2.27,14.06,2.27,12.09,8.15,15.54-.38,22.16-.75,1.54-.09,3.26.27,5.3,1.4,8.08,4.45,13.67,1.45,15.96-.33.96-.75,2.08-1.27,3.25-1.59,3.63-1.02,3.79-1.46,8.46-1.35,3.59.09,6.15.23,8.31-.16,1.12-.2,2.14-.54,3.15-1.12,2.95-1.69,7.79-.87,12.77-1.15,4.83-.27,3.67-5.71,9.5-6.38.19-.02.38-.04.59-.05,6.51-.36,13.59-2.06,16.36-3.3,2.76-1.24,4.28-5.25,9.24-5.95,4.97-.71,12.61-4.18,12.61-4.18,5.41-.52,4.43-2.43,21.06-4.86,15.43-2.27,17.49,4.64,17.7,5.64-.91-7.25-9.85-8.9-12.42-8.55ZM226.57,160.07c5.54-9.96,8.73-15.36,10.3-10.44.23.71.46,1.48.69,2.29,1.31,4.81,2.28,10.94.17,13.12-2.25,2.31-6.41,6.01-9.58,6.94-.15.04-.3.06-.45.07-.51.03-1.02-.14-1.44-.46-1.49-1.13-3.74-4.23.32-11.52ZM188.26,174.32c-.85-.53-.73-1.35-.12-2.25.97-1.44,3.17-3.1,4.65-4.13.48-.33,1.1.16.89.7-.57,1.39-1.46,3.32-2.51,4.59-.9,1.1-1.9,1.72-2.9,1.1ZM195.18,175.4c-.55.25-1.16-.24-1-.82.13-.48.33-1,.61-1.41.29-.41.66-.71,1.15-.73.27-.01.58.06.93.24,1.72.89-.25,2.07-1.69,2.73ZM202.87,173.51c-.37.03-.73-.05-1.06-.22-.82-.44-2.46-1.42-3.09-2.51-.4-.68-.39-1.42.47-2.08,2.71-2.11,2.6-7.98,4.69-9.62,1.48-1.16,7.32-6.5,11.86-9.2,1.86-1.1,3.5-1.77,4.53-1.5,3.53.89-.75,6.14.42,7.6,1.17,1.45-1.18,10.07-7.72,13.92-5.1,3-8.73,3.54-10.1,3.62ZM238.16,184.6c-1.75-.12-5.32-1.88-10.48-.73-2.92.66-7.82-.61-11.52-1.81h0c-2.83-.94-4.96-1.84-4.96-1.84,0,0-6.1-3.14,2.54-4.27,5.45-.72,10.1-1.73,14.03-1.9,2.29-.1,4.34.08,6.15.79,4.9,1.9,6.85,3.75,6.96,4.62.1.87-.97,5.28-2.72,5.16ZM264.63,184.25c-2.25-.17-6.51-.57-10.24-1.36-3.29-.7-6.17-1.72-6.92-3.16-1.53-2.99-4.09-5.04-1.12-6.19.81-.32,2.02-.56,3.78-.74,8.22-.85,12.56-1.04,13.17,2.17.43,2.22,1.66,5.87,2.38,7.9.25.71-.31,1.45-1.06,1.39ZM264.35,167.13c-.38.28-.8.49-1.27.61-1.76.45-6.01,1.39-1.63-1.43,5.39-3.47,5.07-2.72,5.2-1.79.09.67-1.43,1.94-2.3,2.6ZM262.88,163.43c-.98,1.47-8.44,3.3-11.17,3.93-.61.15-1.18.39-1.7.72-.8.5-2.24,1.22-4.15,1.42-.63.06-1.3.06-2.01,0-4.16-.42-1-2.33-1.32-8.19-.17-3.11-2.4-6.64-3.08-9.65-.6-2.67.02-4.92,4.38-6.09,9.29-2.5,10.49-7.11,13.4-9.59,1.88-1.61,4.4-1.51,8.24-1.24,2.1.15,4.6.34,7.6.36,8.49.04.39,7.09.39,7.09-.11,5.88-9.37,19.45-10.58,21.26ZM271.52,168.15c-.45.03-.97-.2-.2-1.71,1.17-2.32,3.04-3.96,3.88-3.2.09.09.13.22.11.38-.14,1.25-3.33,4.43-3.33,4.43,0,0-.23.08-.47.1ZM298.15,180.07c-.75.47-1.83.92-3.4,1.14-1.58.22-3.63.2-6.3-.27-9.45-1.65-13.76-.98-13.76-.98,0,0-7.14.66-5.09-5.35.74-2.17,1.84-3.29,3.06-3.81,2.16-.93,4.68.04,6.19.4,2.35.56,2.94,3.38,6.1,3.42,2.93.03,8.08-2.11,13.43,2.71.85.77.75,2.13-.22,2.74ZM305.78,173.52c-.34.74-1.17,1.13-1.97.93-.93-.24-2.4-.67-4.49-1.48-4.01-1.54-12.9-.92-1.03-2.84,8.55-1.38,8.29,1.61,7.49,3.39ZM304.9,163.72c-8.58,2.22-2.33,4.91-8.58,2.22-6.24-2.71-19.52,8.29-17.82-.75,0,0,.09-.64.26-1.65.43-2.59,1.32-7.59,2.26-10.46,1.3-3.99,4.12-16.12,12.38-16.13,8.27-.03,9.69-1.86,10.85-.61,1.16,1.25,4.51,2.8,5.59,2.53.69-.17,5.42.58,8.99,2.33,2.01.98,3.65,2.29,3.98,3.92.9,4.52-2.62,7.81-5.32,10.11-1.52,1.29-2.6,3.12-4.78,4.87-1.69,1.36-4.05,2.67-7.81,3.64ZM315.54,166.83c-.13.03-.27.05-.41.08-1.08.19-1.88-.95-1.37-1.91.57-1.06,1.46-2.33,2.78-3.25.22-.16.45-.31.65-.46,2.31-1.65,3.56-2.67,4.04-1.1.02.06.04.13.04.2.27,1.61-1.39,5.49-5.75,6.44ZM328.55,170.11c-.63.39-4.35,2.53-8.14,2.76h-.07l-3.81.22s-9.45-1.52-2.17-3.84c.63-.2,1.18-.36,1.67-.48,5.29-1.34,3.92,1.13,8.16-.06,4.64-1.3,4.99,1.03,4.36,1.41ZM338.75,162.03c-3.77,2.63-10.31,1.47-10.31,1.47,0,0-3.46-.9-3.81-3.45-.15-1.05.24-2.39,1.6-4.05,4.68-5.7,11.84-6.21,11.84-6.21,0,0,1.27.08,2.9.39,2.36.44,5.44,1.36,6.45,3.2,1.69,3.09-4.89,6.03-8.67,8.65Z"/>
</svg>