<?xml version="1.0" encoding="UTF-8"?>
<svg id="Ebene_1" data-name="Ebene 1" xmlns="http://www.w3.org/2000/svg" viewBox="0 0 400 230.71">
  <g>
    <g>
      <path d="M38.04,156.68l-10.58-18.68h-6.51v26.83H7.14v-68.86h25.85c5.33,0,9.86.94,13.61,2.81,3.75,1.87,6.56,4.41,8.43,7.6,1.87,3.19,2.81,6.76,2.81,10.7,0,4.54-1.32,8.63-3.95,12.28-2.63,3.65-6.54,6.17-11.74,7.55l16.47,27.92h-6.61c-5.79,0-11.13-3.11-13.98-8.15ZM20.95,127.64h11.54c3.75,0,6.54-.9,8.39-2.71,1.84-1.81,2.76-4.32,2.76-7.55s-.92-5.61-2.76-7.35c-1.84-1.74-4.64-2.61-8.39-2.61h-11.54v20.22Z"/>
      <path d="M78.95,162.21c-4.21-2.33-7.51-5.64-9.91-9.91-2.4-4.27-3.6-9.21-3.6-14.8s1.23-10.52,3.7-14.8c2.47-4.27,5.84-7.58,10.11-9.91,4.27-2.33,9.04-3.5,14.3-3.5s10.03,1.17,14.3,3.5c4.27,2.33,7.65,5.64,10.11,9.91,2.47,4.28,3.7,9.21,3.7,14.8s-1.27,10.52-3.8,14.8c-2.53,4.28-5.95,7.58-10.26,9.91-4.31,2.34-9.12,3.5-14.45,3.5s-10-1.17-14.21-3.5ZM100.21,151.86c2.2-1.22,3.96-3.04,5.28-5.47,1.31-2.43,1.97-5.39,1.97-8.88,0-5.19-1.37-9.19-4.09-11.99-2.73-2.79-6.07-4.19-10.01-4.19s-7.25,1.4-9.91,4.19c-2.66,2.8-3.99,6.79-3.99,11.99s1.3,9.19,3.9,11.99c2.6,2.8,5.87,4.19,9.82,4.19,2.5,0,4.85-.61,7.05-1.82Z"/>
      <path d="M140.41,162.21c-4.21-2.33-7.51-5.64-9.91-9.91-2.4-4.27-3.6-9.21-3.6-14.8s1.23-10.52,3.7-14.8c2.47-4.27,5.84-7.58,10.11-9.91,4.27-2.33,9.04-3.5,14.3-3.5s10.03,1.17,14.3,3.5c4.27,2.33,7.65,5.64,10.11,9.91,2.47,4.28,3.7,9.21,3.7,14.8s-1.27,10.52-3.8,14.8c-2.53,4.28-5.95,7.58-10.26,9.91-4.31,2.34-9.12,3.5-14.45,3.5s-10-1.17-14.21-3.5ZM161.67,151.86c2.2-1.22,3.96-3.04,5.28-5.47,1.31-2.43,1.97-5.39,1.97-8.88,0-5.19-1.37-9.19-4.09-11.99-2.73-2.79-6.07-4.19-10.01-4.19s-7.25,1.4-9.91,4.19c-2.66,2.8-3.99,6.79-3.99,11.99s1.3,9.19,3.9,11.99c2.6,2.8,5.87,4.19,9.82,4.19,2.5,0,4.85-.61,7.05-1.82Z"/>
    </g>
    <g>
      <path d="M21.03,186.52v26.44c0,1.84.44,3.17,1.33,4,.89.82,2.38,1.23,4.49,1.23h59.35l8.54,11.64H24.58c-11.64,0-17.46-5.66-17.46-16.97v-26.34h0c-3.6,0-6.51-2.91-6.51-6.51v-4.83h6.51v-13.51h13.91v13.51h31.93c3.13,0,5.67,2.54,5.67,5.67h0c0,3.13-2.54,5.67-5.67,5.67h-31.93Z"/>
      <path d="M121.27,205.76h-39.95c.33,3.95,1.71,7.04,4.14,9.27,2.43,2.24,5.43,3.35,8.98,3.35,5.13,0,8.78-2.2,10.95-6.61h14.9c-1.58,5.26-4.6,9.59-9.08,12.97-4.47,3.39-9.96,5.08-16.47,5.08-5.26,0-9.98-1.17-14.16-3.5-4.18-2.33-7.43-5.64-9.77-9.91-2.34-4.27-3.5-9.21-3.5-14.8s1.15-10.62,3.45-14.9c2.3-4.27,5.52-7.56,9.67-9.86,4.14-2.3,8.91-3.45,14.3-3.45s9.85,1.12,13.96,3.35c4.11,2.24,7.3,5.41,9.57,9.52,2.27,4.11,3.4,8.83,3.4,14.16,0,1.97-.13,3.75-.39,5.33ZM107.36,196.48c-.07-3.55-1.35-6.4-3.85-8.53-2.5-2.14-5.56-3.21-9.17-3.21-3.42,0-6.3,1.04-8.63,3.11-2.33,2.07-3.77,4.95-4.29,8.63h25.95Z"/>
      <path d="M129.22,187.61c2.2-4.27,5.21-7.56,9.03-9.86,3.81-2.3,8.06-3.45,12.73-3.45,3.55,0,6.94.77,10.16,2.32,3.22,1.55,5.79,3.6,7.69,6.16v-21.09h11.34c1.47,0,2.66,1.19,2.66,2.66v65.49h-14.01v-8.09c-1.71,2.7-4.11,4.87-7.2,6.51-3.09,1.64-6.68,2.47-10.75,2.47-4.6,0-8.81-1.18-12.63-3.55-3.81-2.37-6.82-5.71-9.03-10.01-2.2-4.31-3.3-9.26-3.3-14.85s1.1-10.42,3.3-14.7ZM166.95,193.87c-1.32-2.4-3.09-4.24-5.33-5.52-2.24-1.28-4.64-1.92-7.2-1.92s-4.93.63-7.1,1.87c-2.17,1.25-3.93,3.08-5.28,5.47-1.35,2.4-2.02,5.25-2.02,8.53s.67,6.17,2.02,8.63c1.35,2.47,3.12,4.36,5.33,5.67,2.2,1.32,4.55,1.97,7.05,1.97s4.96-.64,7.2-1.92c2.23-1.28,4.01-3.12,5.33-5.52,1.32-2.4,1.97-5.28,1.97-8.63s-.66-6.23-1.97-8.63Z"/>
    </g>
  </g>
  <path d="M211.86,127.55c1.49-2.78,4.21-14.24-.81-23.71-5.02-9.46,1.86-3.35-2.14-14.82-4-11.48-7.93-10.11-7.76-12.63.17-2.51-.52-13.87-10.06-20.75-4.13-2.98-5.3-4.52-6.33-5.74-1.37-1.62-2.52-2.71-9.89-5.82-12.37-5.24-7.52-4.21-12.3-4-.49.02-.96-.18-1.29-.54-.7-.78-1.92-2.12-2.32-2.52-.57-.59-24.08-5.58-28.91-5.47-3.17.08-3.6-.92-3.54-1.62.02-.2-.19-.34-.36-.23-.49.3-1.17.61-1.59.36-.04-.03-.08-.06-.12-.09-.66-.65-2.37-2.43-7.2-1.53-3,.56-3.55-.97-3.53-2.21,0-1-.46-1.93-1.27-2.52-2.8-1.99-8.95-6.03-13.62-6.75-5.95-.92-20.69-12.52-20.02-16.5-.41,1.45-.75,6.05,7.13,14,9.69,9.77,12.62,9.33,15.02,12.95,2.39,3.62,3.41,6.1,4.58,6.79s4.03,2.82,4.23,3.71c.19.9-1.63,3.35,2.88,7.82,3.84,3.79,7.86,5.33,9.85,8.28.35.51.63,1.06.84,1.68,1.42,4.16.03,4.98,3.6,8.69,3.57,3.72,6.89,5.86,8.18,7.33,1.29,1.47,6.21,10.94,9.38,14.23,3.17,3.28,6.76,8.64,9.42,9.35,2.66.7,2.86.69,3.54,1.55.68.85-.17,4.08,2.25,6.08,2.42,2,2.35.78,2.94,1.45.58.67-.67,1.37,2.84,3.16,3.52,1.8,13.3,4.83,17.13,6.09.08.02.15.05.23.08,3.04,1.08,5.2,3.48,5.88,4.31.14.17.2.38.16.59-.2,1.15-.44,5.17,5.93,6.32,7.44,1.35,5.38-.38,6.69.39s.57,1.71,1.48,2.5c.91.79,3.81.4,3.81.4,0,0,1.51,3.1,1.06,4.54-.44,1.44-36.72,63.28-36.72,63.28l.22,1.3,37.49-59.44c.95-1.51,1.55-3.22,1.7-4.99.15-1.66.5-3.82,1.31-5.32ZM203.31,119.01c-.15.47-.76.62-1.14.3-.67-.56-1.4-1.47-.39-2.21,1.33-.97,1.97.48,1.53,1.92ZM187.91,98.15c.49.28,1.22,5.69.23,4.97,0,0-2.81-1.66-2.11-3.32.71-1.67,1.39-1.93,1.87-1.64ZM184.01,100.35c-.13.26-.44.33-.67.2-.06-.04-.12-.09-.16-.16-.4-.61-.72-1.52.52-1.95,1.4-.48.79,1.01.32,1.92ZM106.95,32.55c-.21-.43-.2-.95.06-1.35.27-.42.66-.74.97-.01.55,1.29,2.9,4.62,3.14,4.77s-2.41.11-4.18-3.4ZM113.37,35.31c-1.31-1.68-3.59-4.97-1.59-5.25,2.11-.3,3.17,2.86,2.91,4.88-.08.66-.91.89-1.32.37ZM118.24,32.07c.06-.76.84-1.24,1.54-.94,1.09.47,2.62,1.13,3.81,1.6.17.07.33.13.49.19,2.02.79,3.32,3.25,3.33,3.91,0,.66.73,1.87,2.94,5.24,2.2,3.38,0,6.92-2.6,7.36-.3.05-.64-.05-.99-.27-2.66-1.65-6.45-10.08-7.71-11.87-.91-1.27-.92-3.66-.79-5.22ZM124.86,55.71c-.75-.4-1.44-1.11-2.07-1.94-1.12-1.47-2.04-3.25-2.8-4.03-3.34-3.44-3.27-4.37-3.27-4.37-.42-3.08,4.45-.56,7.73,3.97.49.67.86,1.17,1.16,1.52,1.68,2.01.74-.26,3.36,3.6,3.09,4.54-2.02,2.34-4.12,1.24ZM136.91,45.33c.08-1.47-.4-2.91-1.4-3.99-1.32-1.43-2.32-3.53.57-5.3,4.55-2.79,3.01.37,6,1.12.58.15,1.12.42,1.6.77,1.14.85,3.48,2.17,6.32,1.54,4.05-.9,6.96,5.5,6.55,7.87-.4,2.37-.51,5.68.28,8.57.79,2.89-4.45,15.22-7.71,13.19-2.91-1.82-12.67-16.2-12.23-23.78ZM138.74,71.28c-6.45-8.63-6.09-11.94-.94-8.8,5.16,3.14,15.16,13.95,15.16,13.95,0,0-7.77,3.47-14.22-5.15ZM154.66,66.59c.42-1.5,1.79-2.66,2.87-3.38.48-.32,1.13.02,1.14.59.02,2.16,1.87,4.2,3.49,6.05,1.96,2.24-2.4,7.68-3.09,8.19-.69.51-1.53-2.07-2.14-4.38-.61-2.31-2.99-4.49-2.27-7.07ZM162.69,94.86c-2.9-.18-.06-1.02-4.8-3.4-4.74-2.38-2.79-.59-5.94-3.47-3.14-2.89,4.45-5.82,4.45-5.82,1.97-.93,2.3,2.32,4.38,2.56s7.08,4.2,6.44,4.76c-.64.56.05,3.79.2,5.32.15,1.52-1.84.23-4.73.05ZM170.74,98.03c-.43-.14-.82-.41-1.1-.77-2.63-3.25-1.23-5.08-.36-5.79.26-.22.66-.17.88.1,1.54,1.86,5.15,5.47,5.02,6.72-.11,1.04-3.09.18-4.43-.26ZM173.82,90.32c-1.11-.78-3.18-6.16-3.17-8.64,0-2.47-2.31-5-1.82-6.28s1.61-8.33.95-13.02c-.65-4.69,1.98-7.44,1.59-9.64,0,0-1.21-3.97.53-4.26s5.23,3.58,6.82,3.98c1.59.4.38-2,2.76-.48.3.19.69.45,1.14.78,3.15,2.33,9.41,8.2,9.61,18.81.22,12.14-1.75,9.02-3.46,11.94-1.71,2.92-3.32,12.16-7.24,11.95-3.93-.2-6.59-4.37-7.7-5.15ZM183.22,112.62c-.12-.05-.2-.08-.26-.11-3.65-1.99-3.99-4.02-5.7-5.84-.85-.91-1.1-2.26-.52-3.35.53-1.01,1.65-1.77,3.99-.72.36.16.73.36,1.13.58,4.7,2.72,11.39,9.84,11.31,10.99-.08,1.18-8.21-.88-9.96-1.54ZM198.71,114.52c-1.85-1.08-1.93-4.53-3.43-6.19-1.51-1.66-2.97-7.21-3.22-13.49-.18-4.71,4.46-9.39,6.79-11.43.73-.64,1.86-.46,2.35.38.7,1.18,1.35,2.89.58,4.47-1.34,2.74,1.14,7.19,1.34,11.1.2,3.9,3.1,2.07,2.95,9.03-.15,6.95-5.52,7.22-7.37,6.14ZM201.02,122.73l-1.9-.83c-.15-.07-.26-.19-.31-.35l-.54-1.85c-.07-.24.22-.4.39-.23l2.69,2.76c.23.24-.03.62-.33.49ZM209.38,111.22s-.04-4.41.97-3c1,1.41.67,8.91-.07,10.18s-3.46,1.9-.9-7.18Z"/>
  <path d="M387.54,154.53c-2.6.36-15.6-1.76-23.01-1.56-7.41.19-10.59-2.03-14.81-3.33-4.04-1.24-4.47,1.32-7.04.73-.11-.03-.23-.06-.35-.1-2.89-.93-.56-2.36-6.83-5.08-6.07-2.62-5.64.95-14.65-4.28-.29-.17-.59-.34-.89-.53-9.94-6-16.29-6.45-16.29-6.45-5-3.69-9.16-4.21-11.16-4.21-.73,0-1.4-.36-1.88-.9-.87-.95-2.89-2-7.33-.23-4.78,1.91-7.77,1.42-9.14.95-.59-.2-1.24-.2-1.8.07-2.06.96-3.93,1.35-5.6,1.44-3.77.21-6.54-1.14-8.27-1.08-2.62.08-1.7.81-4.7,1.88-3,1.07-4.66-1.3-9.67-1.08-5.01.22-8.98,3.4-9.73,5.62-.75,2.23-1.24,1.38-4.49,1.63-3.26.26-2.53,1.59-5.67,4.17-3.13,2.58-8.85,5.73-11.63,6.76-2.79,1.03-3.81,2.17-7.01,3.44-3.21,1.27-5.63,4.89-10.5,7.57-3.34,1.84-7.27,8.14-9.58,12.48-1.05,1.97-1.77,3.54-1.94,4.09-.55,1.78-1.76,3.62-1.76,3.62,0,0-2.65,7.33-2.79,8.64-.15,1.32-.56,40.46-.56,40.46l3.91-.22s-.15-37.58.9-42.22c.7-3.08,3.72-4.17,5.67-4.56.8-.16,1.64.21,1.98.96,1.44,3.05,8.25,4.48,11.07,4.94.11.02.22.03.32.02.58-.03,1.1-.43,1.29-1,.18-.53.72-.88,1.27-.77,3.86.78,8.03-3.95,12.15-2.52.65.22,1.3.59,1.94,1.17,5.06,4.53,14.1,2.28,14.1,2.28,12.13,8.17,15.59-.38,22.22-.75,1.55-.09,3.27.28,5.32,1.4,8.11,4.46,13.71,1.45,16.01-.33.96-.75,2.09-1.27,3.26-1.6,3.64-1.03,3.8-1.46,8.49-1.35,3.6.09,6.17.24,8.34-.17,1.13-.2,2.15-.54,3.16-1.12,2.96-1.69,7.81-.87,12.81-1.15,4.85-.27,3.68-5.73,9.53-6.4.19-.02.38-.04.59-.05,6.53-.36,13.63-2.07,16.41-3.31,2.77-1.24,4.29-5.26,9.27-5.97,4.98-.72,12.65-4.19,12.65-4.19,5.43-.52,4.45-2.43,21.12-4.88,15.47-2.28,17.54,4.65,17.76,5.66-.92-7.27-9.88-8.93-12.46-8.57ZM227.87,160.61c5.56-9.99,8.75-15.4,10.33-10.47.23.71.46,1.49.69,2.29,1.32,4.82,2.29,10.98.17,13.15-2.26,2.31-6.43,6.03-9.61,6.96-.15.04-.3.06-.45.07-.51.03-1.03-.14-1.44-.46-1.5-1.13-3.75-4.24.32-11.56ZM189.44,174.9c-.85-.53-.73-1.35-.13-2.26.97-1.45,3.18-3.11,4.67-4.14.49-.33,1.11.16.89.7-.57,1.39-1.47,3.33-2.52,4.6-.9,1.1-1.91,1.72-2.91,1.1ZM196.38,175.98c-.55.25-1.16-.24-1-.83.13-.48.33-1,.61-1.41.29-.41.67-.71,1.15-.74.27-.02.58.06.93.24,1.72.89-.25,2.07-1.7,2.74ZM204.1,174.09c-.37.03-.73-.05-1.06-.22-.82-.44-2.47-1.43-3.1-2.52-.4-.68-.39-1.42.47-2.09,2.72-2.11,2.61-8,4.71-9.65,1.48-1.16,7.35-6.52,11.89-9.22,1.86-1.1,3.51-1.77,4.54-1.51,3.54.89-.76,6.16.42,7.62,1.17,1.46-1.19,10.11-7.74,13.96-5.11,3.01-8.76,3.55-10.13,3.63ZM239.49,185.21c-1.75-.12-5.34-1.88-10.51-.73-2.93.66-7.85-.61-11.55-1.82h0c-2.84-.94-4.97-1.85-4.97-1.85,0,0-6.12-3.15,2.55-4.28,5.46-.72,10.14-1.74,14.07-1.91,2.3-.1,4.36.08,6.17.79,4.91,1.91,6.87,3.76,6.98,4.63.1.87-.97,5.29-2.73,5.17ZM266.04,184.87c-2.26-.17-6.53-.57-10.28-1.36-3.3-.71-6.19-1.72-6.94-3.17-1.54-3-4.1-5.05-1.12-6.21.81-.32,2.03-.56,3.8-.75,8.25-.85,12.6-1.04,13.21,2.18.43,2.23,1.66,5.89,2.39,7.92.25.72-.31,1.45-1.06,1.4ZM265.76,167.69c-.38.29-.81.49-1.27.62-1.76.45-6.03,1.39-1.63-1.43,5.41-3.48,5.08-2.73,5.21-1.79.09.68-1.44,1.95-2.31,2.61ZM264.29,163.98c-.98,1.47-8.46,3.31-11.2,3.94-.61.15-1.18.39-1.71.72-.8.5-2.25,1.22-4.16,1.42-.63.06-1.3.06-2.02,0-4.17-.42-1-2.34-1.33-8.22-.17-3.12-2.41-6.66-3.09-9.68-.6-2.68.02-4.94,4.4-6.11,9.32-2.51,10.52-7.14,13.44-9.62,1.88-1.61,4.41-1.52,8.26-1.24,2.11.15,4.61.35,7.62.36,8.51.04.39,7.11.39,7.11-.11,5.9-9.4,19.51-10.61,21.32ZM272.96,168.72c-.46.03-.97-.2-.2-1.71,1.18-2.32,3.05-3.97,3.89-3.21.09.09.13.22.11.38-.14,1.26-3.34,4.45-3.34,4.45,0,0-.23.08-.47.1ZM299.67,180.67c-.75.47-1.84.93-3.41,1.14-1.58.22-3.64.2-6.32-.27-9.48-1.65-13.8-.98-13.8-.98,0,0-7.17.66-5.1-5.37.75-2.17,1.84-3.3,3.07-3.82,2.17-.93,4.7.04,6.21.4,2.35.57,2.95,3.39,6.12,3.43,2.93.03,8.1-2.12,13.47,2.72.85.77.75,2.14-.22,2.75ZM307.32,174.1c-.34.74-1.17,1.13-1.98.93-.93-.24-2.41-.68-4.5-1.48-4.02-1.55-12.93-.92-1.03-2.85,8.58-1.39,8.32,1.61,7.51,3.4ZM306.43,164.27c-8.6,2.22-2.34,4.93-8.6,2.22-6.26-2.71-19.58,8.32-17.87-.76,0,0,.09-.65.26-1.66.43-2.6,1.33-7.61,2.26-10.49,1.31-4,4.13-16.17,12.42-16.18,8.3-.03,9.72-1.87,10.88-.61,1.17,1.25,4.52,2.81,5.6,2.53.69-.17,5.44.58,9.02,2.34,2.02.99,3.66,2.3,3.99,3.93.9,4.53-2.63,7.83-5.34,10.14-1.52,1.29-2.61,3.13-4.79,4.89-1.7,1.36-4.07,2.68-7.83,3.65ZM317.11,167.39c-.13.03-.27.05-.41.08-1.08.19-1.89-.95-1.37-1.91.57-1.07,1.47-2.33,2.79-3.26.22-.16.45-.31.66-.46,2.31-1.65,3.57-2.68,4.06-1.11.02.06.04.13.04.2.27,1.61-1.39,5.51-5.76,6.46ZM330.15,170.68c-.63.39-4.36,2.53-8.16,2.77h-.07l-3.83.22s-9.47-1.53-2.18-3.85c.63-.2,1.18-.36,1.68-.49,5.3-1.34,3.93,1.14,8.19-.06,4.65-1.31,5,1.03,4.37,1.42ZM340.39,162.58c-3.78,2.64-10.34,1.47-10.34,1.47,0,0-3.47-.91-3.82-3.46-.15-1.06.24-2.39,1.61-4.06,4.7-5.72,11.87-6.23,11.87-6.23,0,0,1.28.08,2.91.39,2.36.45,5.46,1.36,6.47,3.21,1.69,3.1-4.91,6.05-8.69,8.68Z"/>
</svg>