<?xml version="1.0" encoding="UTF-8"?>
<svg id="Ebene_1" data-name="Ebene 1" xmlns="http://www.w3.org/2000/svg" viewBox="0 0 400 204.35">
  <defs>
    <style>
      .cls-1 {
        fill: #04a043;
      }
    </style>
  </defs>
  <g>
    <path class="cls-1" d="M198.37,146.54v8.31h4.33l10.19,40.48h41.55l8.31-40.48h5.58v-8.31h-69.96ZM213.87,192.45l-7.88-34.31h9.24l4.53,34.31h-5.89Z"/>
    <polygon class="cls-1" points="202.61 196.25 264.09 196.25 260.12 201.14 207.03 201.14 202.61 196.25"/>
    <path class="cls-1" d="M216.46,57.88c-.11-3.23-3.64-14.8-12.98-20.59-9.34-5.78-.09-3.93-9.57-12.02-9.48-8.1-12.26-4.86-13.42-7.18-1.15-2.31-7.63-12.02-19.66-13.18-5.2-.5-7.03-1.26-8.58-1.81-2.05-.73-3.63-1.1-11.77-.04-13.66,1.76-8.85.17-12.96,2.81-.43.27-.95.34-1.43.19-1.03-.32-2.8-.88-3.36-1.04-.81-.23-24.23,7.52-28.45,10.12-2.76,1.71-3.67,1.05-3.97.4-.08-.19-.34-.21-.44-.03-.28.52-.72,1.15-1.22,1.15-.05,0-.1,0-.15-.02-.92-.23-3.36-.92-7.17,2.38-2.37,2.04-3.65.97-4.27-.13-.51-.89-1.41-1.48-2.43-1.57-3.51-.31-11.05-.71-15.56,1.07-5.75,2.27-24.81-.38-26.28-4.26.39,1.5,2.47,5.75,13.56,8.71,13.65,3.64,16.01,1.74,20.01,3.7,3.99,1.97,6.18,3.64,7.57,3.64s5.03.41,5.67,1.1c.64.69.29,3.81,6.6,5.44,5.36,1.38,9.72.66,13.01,2.24.57.27,1.11.61,1.62,1.05,3.41,2.95,2.6,4.39,7.69,5.84,5.09,1.45,9.14,1.62,11.04,2.26,1.91.64,11.16,6.48,15.68,7.75,4.51,1.27,10.46,4.16,13.18,3.41s2.89-.87,3.94-.46c1.04.4,1.96,3.7,5.14,4.22,3.18.52,2.48-.52,3.36-.24.87.29.11,1.56,4.16,1.33,4.05-.23,14.28-2.6,18.33-3.47.08-.02.16-.03.24-.04,3.25-.62,6.41.39,7.44.78.21.08.38.24.45.44.41,1.12,2.29,4.81,8.52,2.53,7.28-2.66,4.57-3.12,6.13-3.12s1.39,1.22,2.6,1.45c1.21.23,3.58-1.62,3.58-1.62,0,0,2.95,1.97,3.29,3.47.35,1.5,3.21,95.35,3.21,95.35l.87,1.04-.44-95.41s-2.66-4.39-2.78-7.63ZM204.47,54.74c.11.5-.35.94-.86.85-.89-.15-2.01-.58-1.49-1.76.67-1.55,1.99-.6,2.35.9ZM180.02,44.24c.58,0,4.02,4.41,2.78,4.28,0,0-3.35-.01-3.58-1.85-.23-1.85.24-2.43.81-2.43ZM177.71,48.2c.02.3-.22.52-.5.52-.08,0-.15-.02-.23-.06-.67-.33-1.43-.97-.55-2,.99-1.15,1.22.49,1.27,1.53ZM74.34,28c-.41-.27-.67-.74-.64-1.23.03-.52.2-1,.85-.52,1.16.86,4.96,2.6,5.25,2.6s-2.08,1.34-5.46-.85ZM81.46,27.14c-2.02-.81-5.76-2.55-4.13-3.83,1.72-1.36,4.29.89,5.1,2.82.27.62-.34,1.26-.97,1.01ZM84.1,21.75c-.34-.71.1-1.53.88-1.63,1.21-.15,2.9-.36,4.2-.55.18-.03.36-.06.53-.08,2.2-.34,4.62,1.16,4.97,1.74.34.58,1.62,1.27,5.32,3.12,3.7,1.85,3.58,6.13,1.5,7.86-.24.2-.59.29-1.02.27-3.21-.08-10.93-5.6-12.98-6.52-1.46-.66-2.71-2.77-3.41-4.22ZM102.19,39.26c-.87.04-1.85-.24-2.83-.65-1.75-.72-3.49-1.83-4.57-2.13-4.74-1.32-5.16-2.18-5.16-2.18-1.96-2.51,3.65-2.8,8.9-.48.78.34,1.37.59,1.81.74,2.53.92.52-.62,4.85,1.45,5.09,2.43-.57,3.12-3.01,3.23ZM107.5,23.83c-.69-1.35-1.86-2.38-3.3-2.81-1.91-.59-3.88-1.92-2.23-4.99,2.59-4.83,2.86-1.23,5.9-2.11.59-.17,1.21-.21,1.82-.15,1.45.16,4.2.12,6.39-1.9,3.12-2.89,9.02,1.27,9.88,3.58.87,2.31,2.49,5.3,4.69,7.45,2.2,2.15,3.94,15.79,0,15.68-3.52-.1-19.61-7.8-23.14-14.74ZM122.55,45.88c-10.18-4.3-11.58-7.42-5.39-7.31,6.2.11,20.65,4.51,20.65,4.51,0,0-5.09,7.09-15.26,2.8ZM134.23,33.48c-.4-1.55.21-3.29.8-4.48.26-.53,1.01-.57,1.31-.07,1.13,1.9,3.83,2.75,6.22,3.55,2.89.97,1.85,8.05,1.5,8.86-.35.81-2.43-1.04-4.16-2.78-1.73-1.73-4.97-2.43-5.67-5.09ZM155.97,54.37c-2.66,1.34-.58-.88-6.02-.53-5.43.34-2.78.92-7.06,0-4.28-.93.93-7.46.93-7.46,1.26-1.84,3.23.87,5.2,0s8.44.06,8.17.89c-.28.83,2.01,3.34,2.94,4.61.92,1.27-1.51,1.16-4.16,2.5ZM164.75,53.01c-.46.1-.94.06-1.38-.11-4.01-1.52-3.72-3.86-3.32-4.94.12-.33.5-.49.83-.37,2.32.85,7.39,2.18,7.93,3.36.45.98-2.64,1.76-4.06,2.06ZM163.49,44.59c-1.39-.12-6.01-3.81-7.28-6.02-1.27-2.2-4.63-3.23-4.86-4.62s-2.89-8.21-5.9-12.03c-3.01-3.82-2.09-7.62-3.58-9.37,0,0-3.13-2.89-1.74-4.05,1.39-1.16,6.48.46,8.1,0,1.62-.46-.69-1.97,2.2-1.85.36.01.84.04,1.41.1,4,.43,12.58,2.39,18.25,11.7,6.48,10.64,3.12,8.9,3.12,12.37s3.36,12.49-.23,14.34c-3.58,1.85-8.1-.46-9.49-.57ZM183.36,59.47c-.13.02-.22.03-.29.03-4.26.13-5.61-1.5-8.07-2.23-1.22-.36-2.15-1.43-2.2-2.7-.05-1.17.55-2.42,3.16-2.71.4-.04.83-.06,1.3-.07,5.57-.03,15.18,2.82,15.71,3.88.54,1.09-7.72,3.47-9.62,3.79ZM198.07,53.14c-2.2,0-4.05-3.01-6.25-3.71-2.2-.69-6.36-4.85-9.83-10.29-2.6-4.08-.91-10.63.1-13.65.31-.94,1.41-1.37,2.28-.89,1.23.69,2.69,1.87,2.83,3.66.23,3.12,4.74,5.78,6.93,9.14,2.2,3.35,3.82.23,7.29,6.48,3.46,6.24-1.16,9.25-3.36,9.25ZM204.36,59.22l-2.11.25c-.17.02-.33-.03-.45-.15l-1.43-1.36c-.18-.17-.01-.47.23-.41l3.81,1.06c.33.09.29.57-.04.6ZM205.82,44.7s-2.32-3.89-.69-3.16c1.62.73,5.2,7.55,5.2,9.05s-2.08,3.47-4.51-5.9Z"/>
    <path class="cls-1" d="M389.59,81.17c-2.08.17-12.32-2.08-18.22-2.25-5.9-.18-8.33-2.08-11.62-3.3-3.16-1.17-3.61.85-5.63.27-.09-.03-.18-.06-.27-.1-2.25-.87-.34-1.9-5.2-4.34-4.71-2.35-4.53.5-11.45-4.05-.22-.15-.45-.3-.69-.46-7.63-5.2-12.66-5.84-12.66-5.84-3.81-3.15-7.09-3.75-8.69-3.84-.58-.03-1.1-.34-1.46-.8-.65-.79-2.21-1.71-5.81-.5-3.88,1.31-6.24.78-7.3.35-.46-.18-.97-.21-1.43-.03-1.68.67-3.18.9-4.51.9-3.01,0-5.14-1.19-6.53-1.22-2.08-.05-1.39.57-3.81,1.29-2.43.72-3.64-1.24-7.63-1.29-3.99-.04-7.28,2.3-7.98,4.04-.69,1.74-1.04,1.04-3.64,1.1-2.6.06-2.08,1.15-4.69,3.06-2.6,1.91-7.28,4.16-9.54,4.86-2.26.69-3.13,1.56-5.72,2.43-2.6.87-4.69,3.64-8.68,5.55-2.74,1.31-6.14,6.15-8.16,9.5-.92,1.52-1.56,2.73-1.73,3.16-.52,1.39-1.56,2.8-1.56,2.8,0,0-2.43,5.71-2.6,6.74-.18,1.04-4.06,66.3-4.06,66.3l2.32,13.33s4.16-77.37,5.2-81.01c.69-2.41,3.14-3.15,4.71-3.37.64-.09,1.29.24,1.53.85,1.01,2.49,6.36,3.92,8.58,4.41.08.02.17.03.25.03.46,0,.89-.29,1.07-.74.17-.41.61-.67,1.04-.55,3.03.79,6.56-2.79,9.77-1.47.5.2,1.01.53,1.49,1.02,3.82,3.82,11.1,2.43,11.1,2.43,9.28,7.03,12.4.38,17.69.38,1.24,0,2.59.36,4.16,1.35,6.25,3.9,10.83,1.76,12.73.44.8-.55,1.71-.92,2.66-1.13,2.94-.66,3.08-.99,6.81-.7,2.86.23,4.89.46,6.63.24.9-.11,1.73-.34,2.56-.75,2.43-1.22,6.25-.35,10.23-.35s3.18-4.39,7.86-4.67c.15,0,.31-.01.47-.01,5.2,0,10.93-1.04,13.19-1.91,2.25-.87,3.64-3.99,7.63-4.34,3.99-.35,10.24-2.78,10.24-2.78,4.34-.17,3.64-1.74,17-2.95,12.4-1.13,13.73,4.47,13.86,5.28-.41-5.82-7.46-7.53-9.53-7.36ZM262.43,78.98c4.86-7.69,7.63-11.86,8.67-7.86.15.57.3,1.2.45,1.85.83,3.89,1.34,8.83-.45,10.46-1.9,1.74-5.37,4.51-7.95,5.11-.12.03-.24.04-.36.04-.41,0-.81-.15-1.13-.43-1.14-.97-2.8-3.53.76-9.17ZM231.27,88.64c-.66-.46-.52-1.11,0-1.8.83-1.11,2.66-2.33,3.89-3.09.4-.24.87.18.67.6-.52,1.08-1.31,2.58-2.2,3.55-.76.83-1.59,1.29-2.36.74ZM236.73,89.81c-.45.18-.91-.24-.76-.7.13-.38.31-.78.55-1.1.25-.31.56-.53.95-.53.22,0,.46.07.73.23,1.33.78-.29,1.64-1.47,2.1ZM242.95,88.64c-.29,0-.58-.07-.83-.22-.63-.39-1.9-1.24-2.35-2.14-.29-.56-.25-1.15.46-1.64,2.25-1.56,2.43-6.25,4.16-7.46,1.23-.86,6.13-4.86,9.86-6.81,1.53-.8,2.87-1.25,3.67-1,2.78.87-.87,4.86,0,6.07.87,1.21-1.39,7.98-6.77,10.75-4.2,2.16-7.12,2.43-8.21,2.44ZM270.58,99.04c-1.39-.17-4.16-1.73-8.32-1.04-2.36.39-6.21-.83-9.1-1.95h0c-2.22-.87-3.87-1.69-3.87-1.69,0,0-4.72-2.78,2.22-3.29,4.37-.33,8.13-.94,11.26-.9,1.83.02,3.46.25,4.86.9,3.82,1.73,5.3,3.29,5.34,3.99.04.69-1.01,4.16-2.39,3.99ZM291.7,99.93c-1.79-.24-5.16-.74-8.11-1.53-2.59-.71-4.85-1.64-5.37-2.83-1.09-2.45-3.04-4.2-.62-4.99.66-.22,1.64-.36,3.05-.43,6.59-.31,10.06-.27,10.4,2.31.24,1.79,1.06,4.75,1.55,6.4.17.58-.31,1.14-.9,1.06ZM292.23,86.27c-.32.21-.66.36-1.04.43-1.42.28-4.85.84-1.24-1.21,4.45-2.53,4.16-1.95,4.22-1.2.04.54-1.23,1.48-1.95,1.97ZM291.23,83.25c-.85,1.13-6.87,2.26-9.07,2.64-.49.09-.96.26-1.39.5-.66.36-1.84.87-3.37.95-.5.02-1.04,0-1.6-.1-3.3-.52-.69-1.9-.69-6.59,0-2.48-1.62-5.4-2.03-7.83-.36-2.15.24-3.92,3.76-4.66,7.51-1.59,8.67-5.21,11.1-7.06,1.57-1.2,3.57-1.01,6.62-.62,1.67.21,3.65.48,6.04.62,6.76.41,0,5.67,0,5.67-.35,4.68-8.33,15.09-9.37,16.48ZM297.91,87.4c-.36,0-.76-.2-.08-1.37,1.04-1.8,2.6-3.02,3.23-2.38.07.08.1.18.07.31-.17.99-2.85,3.39-2.85,3.39,0,0-.18.06-.38.06ZM318.61,98.08c-.62.34-1.5.66-2.76.76-1.27.1-2.9,0-5.01-.49-7.46-1.73-10.93-1.39-10.93-1.39,0,0-5.72.21-3.82-4.49.69-1.69,1.61-2.54,2.6-2.9,1.76-.64,3.73.24,4.92.59,1.85.55,2.2,2.83,4.71,2.99,2.33.15,6.53-1.32,10.59,2.75.64.65.5,1.73-.3,2.18ZM324.98,93.19c-.31.57-.98.85-1.61.66-.73-.23-1.88-.64-3.51-1.38-3.13-1.41-10.24-1.3-.69-2.31,6.88-.73,6.54,1.65,5.82,3.03ZM324.71,85.34c-6.93,1.39-2.08,3.81-6.93,1.39-4.86-2.43-15.92,5.75-14.17-1.39,0,0,.1-.51.28-1.31.46-2.04,1.39-5.99,2.26-8.24,1.22-3.12,3.99-12.66,10.58-12.31,6.6.34,7.81-1.06,8.67,0,.87,1.04,3.47,2.43,4.34,2.26.55-.11,4.3.7,7.06,2.25,1.56.87,2.81,1.99,3,3.3.52,3.64-2.43,6.11-4.69,7.83-1.27.96-2.21,2.38-4.02,3.67-1.41,1.01-3.35,1.95-6.39,2.55ZM333.05,88.29c-.11.02-.22.03-.33.04-.87.1-1.46-.84-1.01-1.58.5-.82,1.27-1.79,2.36-2.46.18-.11.37-.23.54-.34,1.91-1.21,2.95-1.97,3.27-.7.01.05.03.1.03.16.15,1.29-1.35,4.32-4.86,4.88ZM343.27,91.47c-.52.28-3.58,1.82-6.61,1.84h-3.11s-7.46-1.63-1.56-3.16c.51-.13.96-.24,1.36-.31,4.27-.83,3.08,1.08,6.51.31,3.76-.83,3.93,1.04,3.41,1.32ZM351.77,85.49c-3.12,1.93-8.28.71-8.28.71,0,0-2.72-.87-2.88-2.92-.07-.85.29-1.89,1.46-3.16,3.99-4.34,9.71-4.43,9.71-4.43,0,0,1.01.12,2.29.44,1.86.46,4.28,1.32,5,2.83,1.21,2.54-4.16,4.59-7.29,6.51Z"/>
  </g>
  <g>
    <path class="cls-1" d="M37.06,116.22l-7.97-14.08h-7.09v29.22H6.96V56.38h28.14c5.8,0,10.74,1.02,14.82,3.06,4.08,2.04,7.14,4.8,9.19,8.27,2.04,3.48,3.06,7.36,3.06,11.66,0,4.94-1.43,9.4-4.3,13.37-2.87,3.97-7.13,6.71-12.78,8.22l17.94,30.4h0c-10.75,0-20.68-5.79-25.98-15.14ZM22,90.86h12.57c4.08,0,7.12-.98,9.13-2.95,2-1.97,3.01-4.71,3.01-8.22s-1-6.1-3.01-8c-2.01-1.9-5.05-2.85-9.13-2.85h-12.57v22.02Z"/>
    <path class="cls-1" d="M85.16,128.51c-4.58-2.54-8.18-6.14-10.8-10.8-2.61-4.65-3.92-10.03-3.92-16.11s1.34-11.46,4.03-16.11c2.69-4.65,6.35-8.25,11.01-10.8,4.65-2.54,9.85-3.81,15.58-3.81s10.92,1.27,15.58,3.81c4.65,2.54,8.33,6.14,11.01,10.8,2.69,4.66,4.03,10.03,4.03,16.11s-1.38,11.46-4.14,16.11c-2.76,4.66-6.48,8.25-11.17,10.8-4.69,2.54-9.94,3.81-15.74,3.81s-10.89-1.27-15.47-3.81ZM108.31,117.23c2.4-1.32,4.31-3.31,5.75-5.96,1.43-2.65,2.15-5.87,2.15-9.67,0-5.66-1.49-10.01-4.46-13.05-2.97-3.04-6.61-4.57-10.9-4.57s-7.9,1.52-10.8,4.57c-2.9,3.04-4.35,7.4-4.35,13.05s1.41,10.01,4.24,13.05c2.83,3.04,6.39,4.57,10.69,4.57,2.72,0,5.28-.66,7.68-1.99Z"/>
    <path class="cls-1" d="M152.08,128.51c-4.58-2.54-8.18-6.14-10.8-10.8-2.61-4.65-3.92-10.03-3.92-16.11s1.34-11.46,4.03-16.11c2.69-4.65,6.35-8.25,11.01-10.8,4.65-2.54,9.85-3.81,15.58-3.81s10.92,1.27,15.58,3.81c4.65,2.54,8.33,6.14,11.01,10.8,2.69,4.66,4.03,10.03,4.03,16.11s-1.38,11.46-4.14,16.11c-2.76,4.66-6.48,8.25-11.17,10.8-4.69,2.54-9.94,3.81-15.74,3.81s-10.89-1.27-15.47-3.81ZM175.23,117.23c2.4-1.32,4.31-3.31,5.75-5.96,1.43-2.65,2.15-5.87,2.15-9.67,0-5.66-1.49-10.01-4.46-13.05-2.97-3.04-6.61-4.57-10.9-4.57s-7.9,1.52-10.8,4.57c-2.9,3.04-4.35,7.4-4.35,13.05s1.41,10.01,4.24,13.05c2.83,3.04,6.39,4.57,10.69,4.57,2.72,0,5.28-.66,7.68-1.99Z"/>
  </g>
  <g>
    <path class="cls-1" d="M22.08,154.98v28.79c0,2.01.48,3.46,1.45,4.35.97.9,2.6,1.34,4.89,1.34h57.28s12.82,13.64,12.82,13.64l-72.57-.97c-12.68,0-19.01-6.16-19.01-18.48v-28.68H-.16v-12.25c0-.06.05-.11.11-.11h6.98v-14.72h15.15v14.72h13.32v12.35h-13.32Z"/>
    <path class="cls-1" d="M122.02,176.9h-38.12c.36,4.3,1.86,7.66,4.51,10.1,2.65,2.43,5.91,3.65,9.78,3.65,5.59,0,9.56-2.4,11.92-7.2h16.22c-1.72,5.73-5.01,10.44-9.88,14.13-4.87,3.69-10.85,5.53-17.94,5.53-5.73,0-10.87-1.27-15.41-3.81-4.55-2.54-8.09-6.14-10.63-10.8-2.54-4.65-3.81-10.03-3.81-16.11s1.25-11.57,3.76-16.22c2.51-4.65,6.02-8.23,10.53-10.74,4.51-2.51,9.7-3.76,15.58-3.76s10.72,1.22,15.2,3.65c4.48,2.44,7.95,5.89,10.42,10.37,2.47,4.48,3.71,9.61,3.71,15.42,0,.02,0,.04,0,.06,0,3.18-2.64,5.74-5.82,5.74ZM112.27,166.8c-.07-3.87-1.47-6.96-4.19-9.29-2.72-2.33-6.05-3.49-9.99-3.49-3.72,0-6.86,1.13-9.4,3.38-2.54,2.26-4.1,5.39-4.67,9.4h28.25Z"/>
    <path class="cls-1" d="M139.9,156.16c2.4-4.65,5.68-8.23,9.83-10.74,4.15-2.51,8.77-3.76,13.86-3.76,3.87,0,7.55.84,11.07,2.53,3.51,1.68,6.3,3.92,8.38,6.71v-22.99h0c8.42,0,15.25,6.83,15.25,15.25v58.97h-15.25v-8.81c-1.86,2.94-4.48,5.3-7.84,7.09-3.37,1.79-7.27,2.69-11.71,2.69-5.01,0-9.6-1.29-13.75-3.87-4.15-2.58-7.43-6.21-9.83-10.9-2.4-4.69-3.6-10.08-3.6-16.17s1.2-11.35,3.6-16.01ZM180.99,162.99c-1.43-2.61-3.37-4.62-5.8-6.02-2.44-1.4-5.05-2.09-7.84-2.09s-5.37.68-7.73,2.04c-2.36,1.36-4.28,3.35-5.75,5.96-1.47,2.62-2.2,5.71-2.2,9.29s.73,6.71,2.2,9.4c1.47,2.69,3.4,4.75,5.8,6.18,2.4,1.43,4.96,2.15,7.68,2.15s5.41-.7,7.84-2.09c2.43-1.4,4.37-3.4,5.8-6.02,1.43-2.61,2.15-5.75,2.15-9.4s-.72-6.78-2.15-9.4Z"/>
  </g>
</svg>